<svg xmlns="http://www.w3.org/2000/svg" viewBox="0 0 455.21 500.001">
  <path fill="#fff" d="M455.21 0v232.723c-3.12 100.155-61.613 197.582-155.125 242.09C276.27 485.75 251.27 494.338 225.11 500c-62.275-16.01-121.04-46.854-163.994-101.135C15.43 342.44-2.14 271.765.206 196.015V0H455.21"/>
  <path fill="#da251c" d="M3.816 3.615V196.13c-2.493 80.673 17.73 148.124 60.13 200.498 38.222 48.298 92.483 81.792 161.25 99.634 24.7-5.416 49.382-13.717 73.336-24.71 89.784-42.737 149.867-136.53 153.063-238.83V3.616H3.815"/>
  <path fill="#fff" d="M438.345 16.65l-2.207 218.47c-4.647 83.36-45.184 161.415-118.118 207.833-27.848 18.37-59.106 28.42-90.747 37.697-57.787-15.53-113.486-43.193-152.695-95.103-39.03-48.69-53.938-107.04-55.64-171.072L16.848 16.65h421.5"/>
  <path fill="#da251c" d="M407.347 30.537l17.203.038-.11 179.7c2.136 95.383-43.316 185.714-129.375 231.172-21.375 11.854-44.682 20.094-68.387 26.504-57.304-14.37-110.146-46.12-147.643-97.41-30.5-41.76-44.675-90.13-47.2-143.36V30.97l.006-.386 246.91.008 128.608-.056"/>
  <path fill="#fff" d="M228.04 133.345l2.138-.974 59.058-57.69c-8.167 21.18-16.712 42.36-25.645 63.34l-33.22 80.81-1.94 3.5-2.13-2.135-32.64-81.785-26.22-64.694h1.17l59.44 59.64m-1.743 90.72l-.397.967c-48.76 19.818-97.13 40.406-146.473 58.478 18.456-19.43 38.854-38.66 57.695-58.863l-.386-1.75c-19.43-20.005-36.717-37.3-55.56-57.695l.39-.385c48.555 20.004 96.35 38.85 144.73 59.25m149.574-58.09c-17.485 19.04-37.103 38.666-55.944 57.306v1.364l56.72 57.307c-6.995-1.166-14.575-5.63-21.757-7.185l-124.53-50.12 1.552-1.365 24.48-9.12 101.02-40.805c5.83-3.108 12.04-5.44 18.45-7.38M247.86 274.77l32.246 80.425c2.716 6.026 5.053 12.045 6.992 18.45-19.814-17.098-39.63-39.432-59.444-58.08-20.785 19.038-39.433 41.375-60.414 58.857 1.75-6.208 4.466-12.814 7.193-19.03l10.486-26.232 42.74-101.982.77-.387c6.99 15.74 12.435 32.25 19.43 47.99"/>
</svg>
