<?xml version="1.0" standalone="no"?>
<!DOCTYPE svg PUBLIC "-//W3C//DTD SVG 20010904//EN"
 "http://www.w3.org/TR/2001/REC-SVG-20010904/DTD/svg10.dtd">
<svg version="1.0" xmlns="http://www.w3.org/2000/svg"
 width="1000.000000pt" height="1000.000000pt" viewBox="0 0 1000.000000 1000.000000"
 preserveAspectRatio="xMidYMid meet">
<metadata>
Created by potrace 1.11, written by Peter Selinger 2001-2013
</metadata>
<g transform="translate(0.000000,1000.000000) scale(0.100000,-0.100000)"
fill="#000000" stroke="none">
<path d="M456 7703 c0 -1264 2 -2300 3 -2303 2 -3 5 -30 7 -60 5 -89 14 -194
28 -360 2 -25 6 -56 9 -70 4 -14 9 -50 12 -80 3 -30 7 -66 9 -80 2 -14 8 -47
12 -75 4 -27 9 -57 10 -65 2 -8 6 -28 8 -45 3 -16 7 -41 10 -55 4 -14 9 -45
12 -70 3 -25 8 -48 10 -51 2 -3 5 -19 8 -35 3 -16 15 -69 26 -119 12 -49 23
-99 25 -110 7 -33 65 -249 72 -265 3 -8 7 -18 8 -22 2 -5 3 -9 4 -10 2 -2 4
-13 7 -25 2 -12 15 -55 29 -95 14 -40 27 -80 30 -88 15 -57 81 -226 89 -232 6
-4 8 -8 4 -8 -5 0 11 -40 75 -190 6 -14 11 -27 11 -30 1 -3 21 -43 45 -90 23
-47 43 -87 43 -90 0 -6 32 -68 71 -140 84 -154 101 -185 106 -190 10 -9 42
-64 48 -82 3 -10 9 -18 14 -18 5 0 9 -5 9 -11 0 -6 13 -30 30 -54 16 -24 30
-48 30 -53 0 -6 4 -12 8 -14 5 -1 33 -39 62 -83 29 -44 57 -81 62 -83 4 -2 8
-9 8 -14 0 -6 7 -18 15 -27 9 -9 45 -54 81 -101 65 -84 105 -136 134 -170 8
-10 29 -34 45 -55 58 -72 161 -182 310 -330 173 -173 243 -236 378 -345 11 -8
24 -20 31 -25 35 -32 104 -85 110 -85 4 0 18 -10 31 -23 40 -37 54 -47 65 -47
5 0 10 -3 10 -7 0 -5 25 -24 55 -43 30 -19 54 -38 55 -42 0 -5 6 -8 13 -8 6 0
28 -14 47 -30 19 -16 41 -30 48 -30 6 0 12 -4 12 -10 0 -5 6 -10 14 -10 8 0
16 -4 18 -8 4 -10 207 -132 219 -132 5 0 9 -4 9 -10 0 -5 4 -10 10 -10 5 0 46
-21 92 -47 46 -27 124 -68 173 -93 50 -25 92 -48 93 -52 2 -5 8 -8 14 -8 6 0
41 -14 77 -31 86 -41 151 -70 231 -104 36 -15 80 -34 98 -42 19 -8 68 -27 110
-43 42 -16 95 -35 117 -43 54 -21 78 -29 90 -33 6 -2 64 -21 130 -44 66 -23
127 -43 136 -45 9 -2 54 -15 100 -30 46 -15 91 -28 99 -30 8 -2 52 -13 97 -25
76 -20 85 -20 135 -6 29 9 67 18 83 21 69 13 81 16 100 22 11 4 25 8 30 9 6 1
46 12 90 24 44 12 94 26 111 30 18 4 38 11 45 16 8 5 23 9 34 10 16 1 153 45
225 72 8 3 17 6 20 7 29 7 87 30 96 37 7 5 16 8 20 7 5 -1 18 1 29 6 181 71
372 148 415 166 96 42 388 188 466 234 42 25 78 45 80 45 3 0 17 8 32 19 15
10 65 42 112 71 47 30 87 57 88 62 2 4 8 8 12 8 16 0 261 176 268 193 2 4 10
7 17 7 8 0 18 6 22 13 4 6 24 24 45 39 20 15 42 33 50 40 7 7 56 49 108 93 52
44 111 96 131 115 20 19 81 79 137 133 56 53 102 99 102 101 0 2 26 31 58 63
31 33 80 86 107 118 28 32 55 63 60 69 6 6 32 38 59 71 26 33 63 78 81 100 18
22 34 43 34 48 1 4 9 15 19 25 24 27 41 49 92 122 24 36 49 70 55 77 29 35 35
43 35 48 0 3 21 38 48 78 26 40 52 81 59 92 7 11 31 52 55 90 23 39 50 84 59
100 9 17 31 55 48 85 44 77 211 418 226 460 1 3 6 16 12 30 66 157 98 237 120
300 14 41 30 86 36 100 5 14 11 30 13 35 5 19 76 250 81 265 7 18 4 5 47 180
20 80 39 158 42 174 2 16 9 37 14 46 5 10 7 20 4 22 -2 3 0 25 5 49 5 24 13
60 16 79 3 19 10 60 15 90 5 30 12 75 15 100 3 25 8 56 10 70 5 30 14 105 20
180 3 30 8 73 12 95 4 22 8 1139 10 2483 l4 2442 -4548 0 -4548 0 1 -2297z"/>
</g>
</svg>
